<?xml version="1.0" encoding="utf-8"?>
<!-- Generator: Adobe Illustrator 26.0.1, SVG Export Plug-In . SVG Version: 6.00 Build 0)  -->
<svg version="1.1" id="Camada_1" xmlns="http://www.w3.org/2000/svg" xmlns:xlink="http://www.w3.org/1999/xlink" x="0px" y="0px"
	 viewBox="0 0 36 36" style="enable-background:new 0 0 36 36;" xml:space="preserve">
<style type="text/css">
	.st0{fill:#E15303;}
	.st1{fill:#B6D800;}
</style>
<path class="st0" d="M36,32c0,2.2-1.8,4-4,4H4c-2.2,0-4-1.8-4-4V4c0-2.2,1.8-4,4-4h28c2.2,0,4,1.8,4,4V32z"/>
<path class="st1" d="M29.3,6.4c-1.2-0.8-2.7-0.4-3.5,0.7L14.9,23.9l-5-4.6c-1-0.9-2.6-0.9-3.5,0.1S5.5,22,6.5,22.9l7.2,6.7
	c0.5,0.4,1.1,0.7,1.7,0.7c0.7,0,1.5-0.3,2.1-1.1C17.8,28.6,30,9.8,30,9.8C30.8,8.7,30.4,7.1,29.3,6.4z"/>
</svg>
